<svg xmlns="http://www.w3.org/2000/svg" viewBox="0 0 128 128" role="img" aria-labelledby="title desc">
  <title id="title">Song Lyrics Formatter for Holyrics icon</title>
  <desc id="desc">A projector screen with short lyric lines and a music note.</desc>
  <defs>
    <linearGradient id="screenGradient" x1="20" y1="20" x2="108" y2="108" gradientUnits="userSpaceOnUse">
      <stop offset="0" stop-color="#174ea6"/>
      <stop offset="1" stop-color="#0b1f3a"/>
    </linearGradient>
    <linearGradient id="noteGradient" x1="73" y1="36" x2="105" y2="82" gradientUnits="userSpaceOnUse">
      <stop offset="0" stop-color="#34d399"/>
      <stop offset="1" stop-color="#14b8a6"/>
    </linearGradient>
  </defs>

  <rect width="128" height="128" rx="24" fill="#f8fafc"/>
  <rect x="15" y="20" width="98" height="70" rx="10" fill="url(#screenGradient)"/>
  <path d="M24 20h80a9 9 0 0 1 9 9v8H15v-8a9 9 0 0 1 9-9Z" fill="#2563eb"/>
  <circle cx="29" cy="29" r="3" fill="#bfdbfe"/>
  <circle cx="40" cy="29" r="3" fill="#bfdbfe"/>
  <circle cx="51" cy="29" r="3" fill="#bfdbfe"/>

  <rect x="29" y="49" width="38" height="6" rx="3" fill="#f8fafc"/>
  <rect x="29" y="63" width="50" height="6" rx="3" fill="#f8fafc"/>
  <rect x="29" y="77" width="32" height="6" rx="3" fill="#f8fafc"/>
  <rect x="84" y="49" width="15" height="6" rx="3" fill="#93c5fd"/>
  <rect x="88" y="63" width="11" height="6" rx="3" fill="#93c5fd"/>

  <path d="M64 91h8v12h19v8H37v-8h19V91h8Z" fill="#334155"/>
  <path d="M82 39v30.3a10.5 10.5 0 1 1-7-9.9V47.2l25-5.9v25a10.5 10.5 0 1 1-7-9.9V36.7L82 39Z" fill="url(#noteGradient)"/>
  <path d="M79 39.8 103 34v8l-24 5.8v-8Z" fill="#99f6e4"/>
</svg>
